<svg width="292" height="59" viewBox="0 0 292 59" fill="none" xmlns="http://www.w3.org/2000/svg">
<g clip-path="url(#clip0_3_120)">
<path d="M2.30742 31.8333V26.5H7.64075V31.8333H2.30742ZM7.64075 31.8333H12.9741V37.1667H7.64075V31.8333ZM7.64075 26.5V21.1667H12.9741V26.5H7.64075ZM12.9741 37.1667H18.3074V42.5H12.9741V37.1667ZM12.9741 21.1667V15.8333H18.3074V21.1667H12.9741ZM18.3074 47.8333V42.5H23.6408V47.8333H18.3074ZM18.3074 15.8333V10.5H23.6408V15.8333H18.3074ZM269.182 47.8333V42.5H274.516V47.8333H269.182ZM269.182 15.8333V10.5H274.516V15.8333H269.182ZM274.516 42.5V37.1667H279.849V42.5H274.516ZM274.516 21.1667V15.8333H279.849V21.1667H274.516ZM279.849 37.1667V31.8333H285.182V37.1667H279.849ZM279.849 21.1667H285.182V26.5H279.849V21.1667ZM285.182 31.8333V26.5H290.516V31.8333H285.182Z" fill="white"/>
<path d="M240.428 41.7097H244.428V49.7097H240.428V41.7097ZM244.428 41.7097V33.7097H248.428V41.7097H244.428ZM248.428 33.7097V21.7097H252.428V33.7097H248.428ZM252.428 21.7097V13.7097H256.428V21.7097H252.428ZM260.428 5.70972V13.7097H256.428V5.70972H260.428Z" fill="white"/>
<path d="M35.5751 29.7097V0.909723H48.3751V4.10972H38.7751V13.7097H48.3751V16.9097H38.7751V29.7097H35.5751ZM49.9751 29.7097V0.909723H62.7751V4.10972H53.1751V13.7097H62.7751V23.3097H59.5751V16.9097H53.1751V29.7097H49.9751ZM62.7751 23.3097H65.9751V29.7097H62.7751V23.3097ZM62.7751 13.7097V4.10972H65.9751V13.7097H62.7751ZM67.5626 26.5097V4.10972H70.7626V26.5097H67.5626ZM80.3626 26.5097V29.7097H70.7626V26.5097H80.3626ZM80.3626 0.909723V4.10972H70.7626V0.909723H80.3626ZM80.3626 4.10972H83.5626V26.5097H80.3626V4.10972ZM85.1501 29.7097V0.909723H88.3501V4.10972H91.5501V10.5097H88.3501V29.7097H85.1501ZM91.5501 16.9097V10.5097H94.7501V16.9097H91.5501ZM94.7501 23.3097V16.9097H97.9501V0.909723H101.15V29.7097H97.9501V23.3097H94.7501ZM102.738 4.10972V0.909723H118.738V4.10972H112.338V29.7097H109.138V4.10972H102.738Z" fill="white"/>
<path d="M131.538 29.7097V0.909723H134.738V26.5097H144.338V29.7097H131.538ZM145.938 29.7097V0.909723H149.138V29.7097H145.938ZM150.744 29.7097V0.909723H163.544V4.10972H153.944V13.7097H163.544V16.9097H153.944V26.5097H163.544V29.7097H150.744ZM163.544 26.5097V16.9097H166.744V26.5097H163.544ZM163.544 13.7097V4.10972H166.744V13.7097H163.544ZM168.331 29.7097V0.909723H181.131V4.10972H171.531V13.7097H181.131V23.3097H177.931V16.9097H171.531V29.7097H168.331ZM181.131 23.3097H184.331V29.7097H181.131V23.3097ZM181.131 13.7097V4.10972H184.331V13.7097H181.131ZM185.919 29.7097V16.9097H189.119V7.30972H192.319V16.9097H195.519V7.30972H198.719V16.9097H201.919V29.7097H198.719V20.1097H189.119V29.7097H185.919ZM192.319 7.30972V0.909723H195.519V7.30972H192.319ZM203.506 29.7097V0.909723H216.306V4.10972H206.706V13.7097H216.306V23.3097H213.106V16.9097H206.706V29.7097H203.506ZM216.306 23.3097H219.506V29.7097H216.306V23.3097ZM216.306 13.7097V4.10972H219.506V13.7097H216.306ZM221.094 7.30972V0.909723H224.294V7.30972H221.094ZM224.294 13.7097V7.30972H227.494V13.7097H224.294ZM227.494 29.7097V13.7097H230.694V29.7097H227.494ZM230.694 13.7097V7.30972H233.894V13.7097H230.694ZM233.894 7.30972V0.909723H237.094V7.30972H233.894Z" fill="#A3ADB5" fill-opacity="0.6"/>
<path d="M35.5751 58.5V29.7H48.3751V32.9H38.7751V42.5H48.3751V45.7H38.7751V58.5H35.5751ZM49.9751 58.5V29.7H62.7751V32.9H53.1751V42.5H62.7751V52.1H59.5751V45.7H53.1751V58.5H49.9751ZM62.7751 52.1H65.9751V58.5H62.7751V52.1ZM62.7751 42.5V32.9H65.9751V42.5H62.7751ZM67.5626 55.3V32.9H70.7626V55.3H67.5626ZM80.3626 55.3V58.5H70.7626V55.3H80.3626ZM80.3626 29.7V32.9H70.7626V29.7H80.3626ZM80.3626 32.9H83.5626V55.3H80.3626V32.9ZM85.1501 58.5V29.7H88.3501V32.9H91.5501V39.3H88.3501V58.5H85.1501ZM91.5501 45.7V39.3H94.7501V45.7H91.5501ZM94.7501 52.1V45.7H97.9501V29.7H101.15V58.5H97.9501V52.1H94.7501ZM102.738 32.9V29.7H118.738V32.9H112.338V58.5H109.138V32.9H102.738Z" fill="#A3ADB5" fill-opacity="0.6"/>
<path d="M131.538 58.5V29.7H134.738V55.3H144.338V58.5H131.538ZM145.938 58.5V29.7H149.138V58.5H145.938ZM150.744 58.5V29.7H163.544V32.9H153.944V42.5H163.544V45.7H153.944V55.3H163.544V58.5H150.744ZM163.544 55.3V45.7H166.744V55.3H163.544ZM163.544 42.5V32.9H166.744V42.5H163.544ZM168.331 58.5V29.7H181.131V32.9H171.531V42.5H181.131V52.1H177.931V45.7H171.531V58.5H168.331ZM181.131 52.1H184.331V58.5H181.131V52.1ZM181.131 42.5V32.9H184.331V42.5H181.131ZM185.919 58.5V45.7H189.119V36.1H192.319V45.7H195.519V36.1H198.719V45.7H201.919V58.5H198.719V48.9H189.119V58.5H185.919ZM192.319 36.1V29.7H195.519V36.1H192.319ZM203.506 58.5V29.7H216.306V32.9H206.706V42.5H216.306V52.1H213.106V45.7H206.706V58.5H203.506ZM216.306 52.1H219.506V58.5H216.306V52.1ZM216.306 42.5V32.9H219.506V42.5H216.306ZM221.094 36.1V29.7H224.294V36.1H221.094ZM224.294 42.5V36.1H227.494V42.5H224.294ZM227.494 58.5V42.5H230.694V58.5H227.494ZM230.694 42.5V36.1H233.894V42.5H230.694ZM233.894 36.1V29.7H237.094V36.1H233.894Z" fill="white"/>
</g>
<defs>
<clipPath id="clip0_3_120">
<rect width="292" height="59" fill="white"/>
</clipPath>
</defs>
</svg>
