<svg width="272" height="193" viewBox="0 0 272 193" fill="none" xmlns="http://www.w3.org/2000/svg">
<g clip-path="url(#clip0_1_256)">
<path fill-rule="evenodd" clip-rule="evenodd" d="M260.267 70.5226L268.396 72.3109L265.756 79.5628C265.222 81.031 265.005 82.1743 265.107 82.9927C265.213 83.7963 265.905 84.5221 267.182 85.1699L265.603 89.5086C264.214 89.1692 263.217 89.2803 262.614 89.8422C262.01 90.404 261.441 91.419 260.907 92.8873L260.218 94.7795H251.438L253.338 89.5591C253.857 88.1349 254.486 87.0918 255.226 86.4299C255.985 85.7586 256.807 85.3511 257.691 85.2072C258.58 85.0486 259.478 85.0261 260.384 85.1399C259.617 84.6444 258.941 84.0575 258.356 83.3792C257.777 82.6862 257.41 81.8457 257.254 80.8578C257.113 79.8753 257.301 78.6719 257.819 77.2476L260.267 70.5226Z" fill="black"/>
<path d="M261.646 67.3283L263.406 60.2691L271.886 62.3835L270.126 69.4428L261.646 67.3283Z" fill="black"/>
<path fill-rule="evenodd" clip-rule="evenodd" d="M239.94 94.7795H231.507C231.622 93.8292 231.89 92.7736 232.313 91.6125L234.998 84.2345C235.533 82.7662 235.749 81.6229 235.648 80.8046C235.562 79.9916 234.87 79.2658 233.572 78.6273L235.152 74.2886C236.561 74.6187 237.558 74.5076 238.141 73.9551C238.745 73.3932 239.314 72.3782 239.848 70.9099L242.534 63.5319C243.282 61.4763 244.18 59.9908 245.228 59.0753C246.296 58.1505 247.704 57.7318 249.452 57.8191C251.204 57.8917 253.486 58.4063 256.297 59.3629L254.157 65.2433C253.343 65.0135 252.583 64.8865 251.876 64.8622C251.19 64.8286 250.706 65.2009 250.422 65.9791L247.416 74.2381C246.903 75.6477 246.267 76.6881 245.507 77.3593C244.767 78.0212 243.953 78.4315 243.064 78.5901C242.18 78.734 241.285 78.7491 240.379 78.6353C241.146 79.1308 241.819 79.7251 242.398 80.4181C242.983 81.0964 243.343 81.9342 243.479 82.9314C243.635 83.9193 243.454 85.1254 242.935 86.5496L239.94 94.7795Z" fill="black"/>
<line x1="220.497" y1="75.9395" x2="239.611" y2="75.9395" stroke="black" stroke-width="5"/>
<path fill-rule="evenodd" clip-rule="evenodd" d="M187.904 14.7989C139.413 31.4121 64.2747 90.9844 11.1605 189.008H3.21514C57.025 87.8889 134.517 25.6902 185.635 8.17673C198.453 3.78527 209.94 2.08869 219.126 3.56246C228.482 5.06353 235.633 9.92861 238.819 18.5113C241.893 26.79 241.002 37.8342 236.231 51.2836C231.923 63.4251 224.32 77.9099 212.942 94.7795H204.46C217.153 76.4957 225.268 61.2491 229.633 48.9433C234.176 36.1365 234.496 26.9794 232.257 20.9477C230.13 15.22 225.444 11.6656 218.017 10.4741C210.421 9.25526 200.18 10.593 187.904 14.7989Z" fill="black"/>
<path d="M174.812 88.5165L170.442 80.9472L175.342 72.7341L165.767 72.8494L161.385 65.259L177.599 65.5108L182.653 74.2641L174.812 88.5165Z" fill="black"/>
<path d="M119.754 177.832L106.395 169.746V160.043L119.754 152.051V160.465L111.738 164.965L119.754 169.441V177.832ZM132.621 182.894C128.856 182.894 126.137 181.957 124.465 180.082C122.809 178.207 121.981 175.223 121.981 171.129V167.098H130.137V172.254C130.137 173.207 130.277 173.957 130.559 174.504C130.856 175.035 131.363 175.301 132.082 175.301C132.832 175.301 133.348 175.082 133.629 174.644C133.926 174.207 134.074 173.488 134.074 172.488C134.074 171.223 133.949 170.168 133.699 169.324C133.449 168.465 133.012 167.652 132.387 166.887C131.777 166.105 130.926 165.199 129.832 164.168L126.129 160.652C123.363 158.043 121.981 155.058 121.981 151.699C121.981 148.183 122.793 145.504 124.418 143.66C126.059 141.816 128.426 140.894 131.52 140.894C135.301 140.894 137.981 141.902 139.559 143.918C141.152 145.933 141.949 148.996 141.949 153.105H133.559V150.269C133.559 149.707 133.395 149.269 133.066 148.957C132.754 148.644 132.324 148.488 131.777 148.488C131.121 148.488 130.637 148.676 130.324 149.051C130.027 149.41 129.879 149.879 129.879 150.457C129.879 151.035 130.035 151.66 130.348 152.332C130.66 153.004 131.277 153.777 132.199 154.652L136.957 159.223C137.91 160.129 138.785 161.09 139.582 162.105C140.379 163.105 141.02 164.277 141.504 165.621C141.988 166.949 142.231 168.574 142.231 170.496C142.231 174.371 141.512 177.41 140.074 179.613C138.652 181.801 136.168 182.894 132.621 182.894ZM144.996 182.519V145.957H161.496V153.926H153.387V159.973H161.168V167.73H153.387V174.48H162.035V182.519H144.996ZM164.777 182.519V141.269H172.981V156.012H176.871V141.269H185.074V182.519H176.871V163.816H172.981V182.519H164.777ZM188.356 182.519V145.957H196.324V182.519H188.356ZM209.707 182.519L219.316 141.105H227.848L218.215 182.519H209.707ZM229.723 177.832V169.441L237.738 164.965L229.723 160.465V152.051L243.082 160.043V169.746L229.723 177.832Z" fill="black"/>
<path d="M165.496 58.369H155.311V46.1327H165.496V58.369ZM190.755 58.369H180.57V46.1327H190.755V58.369Z" fill="black"/>
</g>
<defs>
<clipPath id="clip0_1_256">
<rect width="272" height="193" fill="white"/>
</clipPath>
</defs>
</svg>
