<svg width="272" height="193" viewBox="0 0 272 193" fill="none" xmlns="http://www.w3.org/2000/svg">
<g clip-path="url(#clip0_1_179)">
<rect width="272" height="193" fill="white"/>
<path fill-rule="evenodd" clip-rule="evenodd" d="M259.12 70.2701L264.558 71.4667L263.637 73.9971C263.101 75.4706 262.851 76.6734 262.886 77.6057C262.932 78.5079 263.255 79.3063 263.853 80.0009C264.186 80.3947 264.404 80.7803 264.505 81.1576C264.647 81.5158 264.608 81.9956 264.39 82.597L264.193 83.1382C263.985 83.7096 263.706 84.1018 263.356 84.315C263.036 84.5391 262.621 84.6948 262.113 84.7821C261.208 84.9295 260.442 85.3489 259.816 86.0404C259.201 86.7018 258.625 87.7693 258.089 89.2427L256.073 94.7795H250.183C250.245 94.6385 250.308 94.4789 250.373 94.301L253.164 86.6331C253.821 84.8289 254.628 83.4539 255.585 82.5083C256.553 81.5325 257.681 81.0066 258.969 80.9304C258.042 80.0143 257.516 78.8864 257.391 77.5467C257.265 76.207 257.531 74.6351 258.188 72.8309L259.12 70.2701Z" fill="black"/>
<path d="M260.854 63.2582C260.854 60.5782 261.714 59.2382 263.434 59.2382C264.554 59.2382 265.534 59.3382 266.374 59.5382C267.254 59.7382 267.854 60.2382 268.174 61.0382C268.254 61.2382 268.334 61.5382 268.414 61.9382C268.534 62.3382 268.614 62.7582 268.654 63.1982C268.734 63.6382 268.774 64.0582 268.774 64.4582C268.814 64.8182 268.794 65.0582 268.714 65.1782C268.354 65.7382 267.874 66.1782 267.274 66.4982C266.674 66.7782 266.094 66.9182 265.534 66.9182C264.214 66.9182 263.114 66.6982 262.234 66.2582C261.314 65.7782 260.854 64.7782 260.854 63.2582Z" fill="black"/>
<path fill-rule="evenodd" clip-rule="evenodd" d="M237.746 94.7795H232.113C232.131 93.8489 232.367 92.7573 232.823 91.5046L235.352 84.5584C235.888 83.085 236.133 81.8972 236.087 80.9949C236.051 80.0627 235.735 79.2492 235.136 78.5546C234.803 78.1608 234.57 77.7698 234.439 77.3815C234.338 77.0042 234.392 76.5299 234.6 75.9586L234.797 75.4173C235.015 74.8159 235.279 74.4182 235.588 74.2242C235.938 74.011 236.368 73.8608 236.876 73.7735C237.781 73.6261 238.541 73.2217 239.157 72.5603C239.783 71.8688 240.364 70.7863 240.901 69.3128L243.429 62.3666C243.954 60.9233 244.55 59.8463 245.218 59.1356C245.926 58.4059 246.737 58.0029 247.65 57.9266C248.604 57.8312 249.698 58.0078 250.93 58.4566L251.787 58.7685C252.269 58.9436 252.56 59.2198 252.661 59.5971C252.773 59.9444 252.714 60.4337 252.484 61.0652L252.254 61.6967C251.816 62.8995 251.176 63.3477 250.335 63.0412L250.109 62.9591C249.748 62.8278 249.464 62.8605 249.256 63.0573C249.059 63.224 248.846 63.6231 248.616 64.2546L245.825 71.9225C245.168 73.7267 244.361 75.1016 243.404 76.0473C242.447 76.993 241.319 77.5189 240.021 77.6251C240.958 78.5112 241.484 79.6391 241.598 81.0089C241.724 82.3485 241.458 83.9205 240.801 85.7247L238.011 93.3926C237.792 93.994 237.699 94.4369 237.731 94.7212C237.735 94.7411 237.74 94.7605 237.746 94.7795Z" fill="black"/>
<line x1="220.497" y1="75.9395" x2="239.611" y2="75.9395" stroke="black" stroke-width="5"/>
<path fill-rule="evenodd" clip-rule="evenodd" d="M187.58 13.8528C138.716 30.594 63.2394 90.5401 10.0234 189.008H4.34823C58.0611 88.329 135.218 26.507 185.96 9.12275C198.7 4.75781 210.009 3.11249 218.968 4.54983C228.048 6.00668 234.847 10.6845 237.882 18.8593C240.836 26.817 240.027 37.5916 235.288 50.9492C230.97 63.1204 223.293 77.7145 211.735 94.7795H205.676C218.174 76.7045 226.217 61.5662 230.576 49.2776C235.152 36.379 235.553 26.9523 233.194 20.5996C230.916 14.4641 225.878 10.7224 218.176 9.48669C210.352 8.23147 199.934 9.6205 187.58 13.8528Z" fill="black"/>
<path d="M174.416 81.8895C173.673 82.7747 173.153 83.3054 172.857 83.4816C172.548 83.6472 172.237 83.5993 171.926 83.3377C171.726 83.1703 171.607 82.8688 171.569 82.4331C171.529 81.9745 171.493 81.4347 171.462 80.8135L170.914 69.996L158.361 70.713C157.207 70.7216 156.48 70.6003 156.181 70.3493C155.869 70.0877 155.814 69.7228 156.016 69.2546C156.217 68.7864 156.752 68.0349 157.621 67C158.426 66.04 159.07 65.4118 159.553 65.1154C160.033 64.7961 160.707 64.639 161.573 64.644L173.236 64.6461C174.116 64.6616 174.717 64.8053 175.042 65.0773C175.241 65.2447 175.393 65.4682 175.499 65.7478C175.615 66.015 175.677 66.3965 175.686 66.8925L175.846 78.4371C175.86 79.2561 175.749 79.8955 175.512 80.3553C175.262 80.8046 174.897 81.316 174.416 81.8895Z" fill="black"/>
<path d="M91.3016 173.136C91.8563 173.435 92.3469 173.734 92.7736 174.032C93.2429 174.288 93.6909 174.566 94.1176 174.864C95.0136 175.376 95.8883 175.931 96.7416 176.528C97.5949 177.126 98.4056 177.787 99.1736 178.512C99.9416 179.28 100.752 180.006 101.606 180.688C102.502 181.328 103.483 181.883 104.55 182.352C104.934 182.48 105.168 182.736 105.254 183.12C105.339 183.462 105.232 183.803 104.934 184.144C104.507 184.827 103.846 185.062 102.95 184.848C102.523 184.763 102.096 184.678 101.67 184.592C101.286 184.464 100.902 184.315 100.518 184.144C99.5363 183.76 98.5336 183.419 97.5096 183.12C96.4856 182.779 95.4829 182.395 94.5016 181.968C93.7336 181.627 93.0083 181.243 92.3256 180.816C91.6856 180.347 91.0243 179.92 90.3416 179.536C89.5736 179.11 88.8056 178.662 88.0376 178.192C87.2696 177.723 86.5016 177.275 85.7336 176.848C84.4963 176.166 83.8349 175.248 83.7496 174.096C83.7069 172.902 84.2189 171.878 85.2856 171.024C87.0349 169.574 88.7416 168.123 90.4056 166.672C92.1123 165.179 93.7549 163.579 95.3336 161.872C95.9309 161.275 96.5283 160.678 97.1256 160.08C97.7656 159.483 98.3843 158.864 98.9816 158.224C99.2376 158.011 99.5149 157.776 99.8136 157.52C100.112 157.264 100.411 157.051 100.71 156.88C101.094 156.667 101.52 156.56 101.99 156.56C102.502 156.56 102.907 156.71 103.206 157.008C104.059 157.648 104.294 158.438 103.91 159.376C103.611 160.059 103.248 160.699 102.822 161.296C102.438 161.851 102.032 162.427 101.606 163.024C100.112 164.902 98.4909 166.651 96.7416 168.272C94.9923 169.894 93.1789 171.515 91.3016 173.136ZM114.27 154.512C114.313 159.632 116.446 163.6 120.67 166.416C121.694 167.099 122.761 167.696 123.87 168.208C125.022 168.72 126.131 169.211 127.198 169.68C128.265 170.107 129.331 170.598 130.398 171.152C131.465 171.664 132.446 172.283 133.342 173.008C133.811 173.35 134.238 173.734 134.622 174.16C135.006 174.587 135.326 175.078 135.582 175.632C136.051 176.699 136.222 177.723 136.094 178.704C136.009 179.686 135.667 180.667 135.07 181.648C134.558 182.587 133.897 183.419 133.086 184.144C132.318 184.87 131.486 185.552 130.59 186.192C129.395 186.96 128.137 187.6 126.814 188.112C125.534 188.624 124.169 188.902 122.718 188.944C121.31 189.072 119.987 188.859 118.75 188.304C117.683 187.707 116.958 186.896 116.574 185.872C116.233 184.848 116.297 183.803 116.766 182.736C116.979 182.182 117.278 181.691 117.662 181.264C118.046 180.838 118.451 180.432 118.878 180.048C119.689 179.323 120.393 179.259 120.99 179.856C121.63 180.326 121.758 181.03 121.374 181.968C121.331 182.096 121.246 182.246 121.118 182.416C121.033 182.587 120.947 182.758 120.862 182.928C120.734 183.227 120.691 183.44 120.734 183.568C120.819 183.654 121.033 183.696 121.374 183.696C122.697 183.739 123.934 183.547 125.086 183.12C126.025 182.736 126.899 182.288 127.71 181.776C128.563 181.264 129.331 180.624 130.014 179.856C130.611 179.131 130.889 178.576 130.846 178.192C130.846 177.766 130.441 177.296 129.63 176.784C128.905 176.23 128.115 175.782 127.262 175.44C126.451 175.056 125.641 174.672 124.83 174.288C123.593 173.734 122.355 173.179 121.118 172.624C119.881 172.07 118.707 171.408 117.598 170.64C116.147 169.659 114.846 168.55 113.694 167.312C112.542 166.032 111.582 164.582 110.814 162.96C109.875 160.912 109.299 158.694 109.086 156.304C109.001 154.64 109.065 152.976 109.278 151.312C109.491 149.648 109.939 148.027 110.622 146.448C111.219 144.912 112.009 143.526 112.99 142.288C113.971 141.008 115.187 139.963 116.638 139.152C118.259 138.171 120.073 137.68 122.078 137.68C124.083 137.68 126.046 138.619 127.966 140.496C129.587 141.947 130.889 143.59 131.87 145.424C132.894 147.216 133.683 149.158 134.238 151.248C134.366 151.76 134.43 152.294 134.43 152.848C134.473 153.403 134.473 153.979 134.43 154.576C134.387 154.918 134.281 155.238 134.11 155.536C133.939 155.835 133.683 156.07 133.342 156.24C132.659 156.454 131.998 156.262 131.358 155.664C131.187 155.494 131.038 155.302 130.91 155.088C130.782 154.875 130.675 154.683 130.59 154.512C130.249 153.958 129.95 153.382 129.694 152.784C129.438 152.187 129.161 151.611 128.862 151.056C128.435 150.075 127.966 149.115 127.454 148.176C126.942 147.238 126.345 146.363 125.662 145.552C125.363 145.211 125.065 144.891 124.766 144.592C124.467 144.251 124.126 143.974 123.742 143.76C122.547 142.779 121.203 142.651 119.71 143.376C119.198 143.675 118.707 144.016 118.238 144.4C117.769 144.784 117.363 145.232 117.022 145.744C116.254 146.683 115.657 147.728 115.23 148.88C114.846 149.99 114.59 151.163 114.462 152.4C114.419 152.784 114.355 153.168 114.27 153.552C114.227 153.894 114.227 154.214 114.27 154.512ZM139.024 177.552C139.024 175.547 139.301 173.627 139.856 171.792C140.453 169.915 141.221 168.08 142.16 166.288C142.629 165.435 143.184 164.624 143.824 163.856C144.464 163.088 145.189 162.427 146 161.872C147.109 161.104 148.261 160.656 149.456 160.528C150.736 160.443 151.888 160.72 152.912 161.36C153.936 162 154.725 162.875 155.28 163.984C155.834 165.051 156.005 166.267 155.792 167.632C155.749 168.016 155.664 168.422 155.536 168.848C155.408 169.275 155.237 169.68 155.024 170.064C154.469 171.131 153.808 172.155 153.04 173.136C152.314 174.075 151.418 174.907 150.352 175.632C149.669 176.102 148.944 176.507 148.176 176.848C147.45 177.147 146.661 177.275 145.808 177.232C145.509 177.232 145.317 177.275 145.232 177.36C145.189 177.446 145.168 177.638 145.168 177.936C145.125 178.619 145.168 179.302 145.296 179.984C145.424 180.667 145.594 181.35 145.808 182.032C146.064 182.587 146.298 182.907 146.512 182.992C146.725 183.078 147.109 182.95 147.664 182.608C148.474 182.182 149.2 181.606 149.84 180.88C150.224 180.539 150.608 180.24 150.992 179.984C151.376 179.686 151.76 179.387 152.144 179.088C152.314 178.918 152.57 178.747 152.912 178.576C153.552 178.363 154.085 178.427 154.512 178.768C154.981 179.067 155.216 179.558 155.216 180.24C155.216 180.539 155.194 180.838 155.152 181.136C155.109 181.435 155.045 181.734 154.96 182.032C154.405 183.654 153.616 185.062 152.592 186.256C151.568 187.451 150.181 188.326 148.432 188.88C146 189.52 143.888 188.944 142.096 187.152C141.157 186.214 140.496 185.168 140.112 184.016C139.728 182.864 139.429 181.67 139.216 180.432C139.173 179.963 139.13 179.494 139.088 179.024C139.088 178.512 139.066 178.022 139.024 177.552ZM150.992 166.992C150.992 166.694 150.97 166.438 150.928 166.224C150.885 165.968 150.757 165.798 150.544 165.712C150.245 165.542 149.861 165.648 149.392 166.032C149.221 166.118 149.072 166.224 148.944 166.352C148.816 166.48 148.666 166.63 148.496 166.8C147.941 167.483 147.472 168.23 147.088 169.04C146.746 169.851 146.426 170.662 146.128 171.472C145.914 171.771 145.936 172.006 146.192 172.176C146.277 172.262 146.384 172.304 146.512 172.304C146.682 172.262 146.81 172.219 146.896 172.176C148.816 171.11 150.16 169.531 150.928 167.44C150.97 167.355 150.992 167.27 150.992 167.184C150.992 167.056 150.992 166.992 150.992 166.992ZM176.519 164.56C175.324 164.902 174.172 165.264 173.063 165.648C171.954 166.032 170.866 166.416 169.799 166.8C169.415 166.928 169.01 167.078 168.583 167.248C168.199 167.419 167.815 167.59 167.431 167.76C166.919 167.803 166.663 168.144 166.663 168.784C166.706 170.491 166.748 172.176 166.791 173.84C166.876 175.462 166.983 177.104 167.111 178.768C167.196 179.835 167.282 180.88 167.367 181.904C167.452 182.928 167.559 183.931 167.687 184.912C167.772 185.339 167.708 185.723 167.495 186.064C167.282 186.363 167.004 186.555 166.663 186.64C166.364 186.726 166.044 186.683 165.703 186.512C165.362 186.342 165.063 186.107 164.807 185.808C164.551 185.211 164.359 184.635 164.231 184.08C163.804 182.459 163.463 180.838 163.207 179.216C162.951 177.595 162.716 175.974 162.503 174.352C162.375 173.584 162.247 172.816 162.119 172.048C162.034 171.28 161.948 170.512 161.863 169.744C161.82 169.403 161.756 169.083 161.671 168.784C161.586 168.443 161.415 168.123 161.159 167.824C160.604 167.184 160.54 166.416 160.967 165.52C161.18 165.051 161.244 164.646 161.159 164.304C160.86 161.659 160.711 159.035 160.711 156.432C160.711 153.787 160.732 151.163 160.775 148.56C160.86 147.707 160.924 146.896 160.967 146.128C161.01 145.36 161.074 144.571 161.159 143.76C161.372 142.779 161.799 141.968 162.439 141.328C163.036 140.731 163.74 140.518 164.551 140.688C165.362 140.859 165.938 141.371 166.279 142.224C166.492 142.608 166.599 143.014 166.599 143.44C166.642 143.824 166.663 144.251 166.663 144.72C166.663 146.342 166.663 147.984 166.663 149.648C166.706 151.312 166.706 152.955 166.663 154.576C166.663 155.728 166.684 156.88 166.727 158.032C166.812 159.142 166.812 160.272 166.727 161.424C166.727 161.808 166.77 162.043 166.855 162.128C166.983 162.171 167.239 162.15 167.623 162.064C168.903 161.638 170.204 161.296 171.527 161.04C172.892 160.742 174.236 160.486 175.559 160.272C176.028 160.187 176.306 160.102 176.391 160.016C176.476 159.888 176.519 159.611 176.519 159.184C176.476 157.947 176.434 156.71 176.391 155.472C176.391 154.192 176.434 152.934 176.519 151.696C176.604 150.587 176.711 149.478 176.839 148.368C176.967 147.259 177.18 146.171 177.479 145.104C177.65 144.336 177.948 143.654 178.375 143.056C178.674 142.715 178.972 142.459 179.271 142.288C179.57 142.118 179.932 142.054 180.359 142.096C180.828 142.139 181.17 142.31 181.383 142.608C181.639 142.864 181.852 143.184 182.023 143.568C182.236 144.251 182.386 144.976 182.471 145.744C182.556 146.512 182.599 147.259 182.599 147.984C182.556 149.819 182.492 151.675 182.407 153.552C182.364 155.43 182.258 157.307 182.087 159.184C182.087 159.44 182.087 159.718 182.087 160.016C182.087 160.272 182.151 160.507 182.279 160.72C182.62 161.147 182.663 161.531 182.407 161.872C182.023 162.427 181.831 163.046 181.831 163.728C181.831 164.368 181.788 165.008 181.703 165.648C181.618 167.611 181.511 169.595 181.383 171.6C181.298 173.606 181.212 175.611 181.127 177.616V182.928C181.127 183.312 181.148 183.696 181.191 184.08C181.276 184.464 181.362 184.848 181.447 185.232C181.618 186 181.362 186.598 180.679 187.024C180.124 187.323 179.506 187.195 178.823 186.64C178.439 186.342 178.162 186 177.991 185.616C177.863 185.19 177.735 184.763 177.607 184.336C177.351 183.526 177.18 182.694 177.095 181.84C177.052 180.987 176.988 180.134 176.903 179.28C176.775 177.19 176.711 175.12 176.711 173.072C176.754 171.024 176.69 168.955 176.519 166.864C176.476 166.523 176.455 166.16 176.455 165.776C176.498 165.392 176.519 164.987 176.519 164.56ZM191.239 157.392C190.001 157.947 188.935 157.776 188.039 156.88C187.74 156.539 187.548 156.091 187.463 155.536C187.377 154.982 187.441 154.448 187.655 153.936C187.911 153.382 188.337 152.934 188.935 152.592C189.532 152.208 190.129 152.016 190.727 152.016C191.964 152.016 192.796 152.592 193.223 153.744C193.436 154.256 193.457 154.79 193.287 155.344C193.159 155.856 192.86 156.304 192.391 156.688C192.22 156.859 192.028 157.008 191.815 157.136C191.644 157.222 191.452 157.307 191.239 157.392ZM193.799 183.952C193.969 184.848 193.692 185.488 192.967 185.872C192.199 186.256 191.431 186.171 190.663 185.616C190.321 185.318 190.065 184.976 189.895 184.592C189.724 184.208 189.553 183.803 189.383 183.376C189.255 182.779 189.127 182.16 188.999 181.52C188.913 180.88 188.828 180.262 188.743 179.664C188.487 177.531 188.273 175.398 188.103 173.264C187.975 171.088 187.996 168.934 188.167 166.8C188.209 166.331 188.273 165.862 188.359 165.392C188.444 164.88 188.636 164.411 188.935 163.984C189.148 163.558 189.425 163.216 189.767 162.96C190.151 162.704 190.599 162.576 191.111 162.576C192.092 162.619 192.796 163.131 193.223 164.112C193.607 164.88 193.799 165.712 193.799 166.608V175.44C193.756 175.952 193.713 176.571 193.671 177.296C193.628 178.022 193.607 178.811 193.607 179.664C193.607 180.347 193.607 181.051 193.607 181.776C193.649 182.502 193.713 183.227 193.799 183.952ZM213.086 187.984C213.129 186.79 213.257 185.638 213.47 184.528C213.683 183.376 213.875 182.224 214.046 181.072C214.345 179.238 214.665 177.446 215.006 175.696C215.39 173.904 215.774 172.112 216.158 170.32C216.755 167.419 217.417 164.518 218.142 161.616C218.867 158.672 219.742 155.814 220.766 153.04C220.979 152.614 221.193 152.187 221.406 151.76C221.619 151.334 221.875 150.971 222.174 150.672C222.857 150.075 223.603 149.84 224.414 149.968C225.267 150.096 225.929 150.523 226.398 151.248C226.654 151.632 226.782 152.016 226.782 152.4C226.825 152.784 226.803 153.19 226.718 153.616C226.505 154.598 226.206 155.622 225.822 156.688C225.31 158.224 224.841 159.782 224.414 161.36C224.03 162.939 223.582 164.518 223.07 166.096C222.686 167.419 222.302 168.763 221.918 170.128C221.534 171.451 221.15 172.795 220.766 174.16C220.126 176.422 219.507 178.683 218.91 180.944C218.355 183.206 217.779 185.467 217.182 187.728C217.054 188.155 216.926 188.56 216.798 188.944C216.713 189.328 216.563 189.755 216.35 190.224C215.923 191.12 215.283 191.462 214.43 191.248C213.705 191.206 213.278 190.672 213.15 189.648C213.15 189.563 213.15 189.435 213.15 189.264C213.15 189.136 213.129 189.008 213.086 188.88V187.984ZM246.113 170.256C245.601 170 245.11 169.766 244.641 169.552C244.171 169.296 243.702 169.083 243.233 168.912C241.483 168.144 239.755 167.27 238.049 166.288C236.342 165.307 234.678 164.283 233.057 163.216C232.246 162.619 231.585 161.915 231.073 161.104C230.731 160.507 230.625 159.867 230.753 159.184C230.923 158.502 231.243 157.968 231.713 157.584C232.182 157.243 232.715 157.072 233.313 157.072C233.953 157.03 234.507 157.222 234.977 157.648C235.745 158.288 236.555 158.843 237.409 159.312C238.262 159.739 239.115 160.144 239.969 160.528C241.803 161.382 243.553 162.363 245.217 163.472C246.881 164.539 248.523 165.648 250.145 166.8C252.321 168.379 252.641 170.235 251.105 172.368C250.081 173.776 248.907 174.95 247.585 175.888C246.006 177.083 244.342 178.192 242.593 179.216C240.886 180.24 239.179 181.243 237.473 182.224C237.089 182.48 236.683 182.758 236.257 183.056C235.873 183.312 235.489 183.547 235.105 183.76C234.934 183.846 234.763 183.931 234.593 184.016C234.422 184.102 234.273 184.187 234.145 184.272C233.889 184.4 233.654 184.443 233.441 184.4C233.27 184.315 233.078 184.208 232.865 184.08C232.694 183.867 232.609 183.654 232.609 183.44C232.651 183.184 232.737 182.971 232.865 182.8C232.95 182.587 233.057 182.395 233.185 182.224C233.355 182.054 233.505 181.904 233.633 181.776C234.187 181.307 234.721 180.838 235.233 180.368C235.787 179.856 236.342 179.387 236.897 178.96C238.39 177.766 239.819 176.55 241.185 175.312C242.593 174.032 243.958 172.688 245.281 171.28C245.409 171.152 245.537 171.003 245.665 170.832C245.835 170.662 245.985 170.47 246.113 170.256Z" fill="black"/>
<path d="M154.706 57.9679C152.88 57.9679 151.647 57.5485 151.006 56.7099C150.315 55.8712 149.97 54.6625 149.97 53.0839C149.97 52.4425 150.118 51.8752 150.414 51.3819C150.66 50.8392 150.981 50.3705 151.376 49.9759C151.77 49.5319 152.19 49.1865 152.634 48.9399C153.028 48.6932 153.398 48.4959 153.744 48.3479C154.829 47.9532 155.964 48.0519 157.148 48.6439C158.282 49.2359 159.121 50.0252 159.664 51.0119C159.812 51.3079 159.91 51.6779 159.96 52.1219C160.009 52.5659 160.034 53.0345 160.034 53.5279C160.034 54.0212 159.984 54.4899 159.886 54.9339C159.787 55.3779 159.614 55.7479 159.368 56.0439C158.776 56.8332 158.11 57.3512 157.37 57.5979C156.58 57.8445 155.692 57.9679 154.706 57.9679ZM175.796 49.0139C175.697 48.6192 175.746 48.2245 175.944 47.8299C176.092 47.4352 176.388 47.1639 176.832 47.0159C178.065 46.6705 179.372 46.7939 180.754 47.3859C181.346 47.6325 181.913 48.0272 182.456 48.5699C182.949 49.1125 183.368 49.7292 183.714 50.4199C184.01 51.0612 184.182 51.7519 184.232 52.4919C184.281 53.1825 184.133 53.8485 183.788 54.4899C183.245 55.4272 182.53 56.0932 181.642 56.4879C180.754 56.8825 179.841 57.0059 178.904 56.8579C177.769 56.6605 176.733 56.1919 175.796 55.4519C174.858 54.6625 174.39 53.4539 174.39 51.8259C174.39 51.0365 174.612 50.3952 175.056 49.9019C175.45 49.4085 175.697 49.1125 175.796 49.0139Z" fill="black"/>
</g>
<defs>
<clipPath id="clip0_1_179">
<rect width="272" height="193" fill="white"/>
</clipPath>
</defs>
</svg>
