<svg width="272" height="193" viewBox="0 0 272 193" fill="none" xmlns="http://www.w3.org/2000/svg">
<g clip-path="url(#clip0_2_53)">
<path fill-rule="evenodd" clip-rule="evenodd" d="M259.12 70.2701L264.558 71.4667L263.637 73.9971C263.101 75.4706 262.851 76.6734 262.886 77.6057C262.932 78.5079 263.255 79.3063 263.853 80.0009C264.186 80.3947 264.404 80.7803 264.505 81.1576C264.647 81.5158 264.608 81.9956 264.39 82.597L264.193 83.1382C263.985 83.7096 263.706 84.1018 263.356 84.3149C263.036 84.539 262.621 84.6947 262.113 84.7821C261.208 84.9295 260.442 85.3489 259.816 86.0404C259.201 86.7018 258.625 87.7693 258.089 89.2427L256.073 94.7795H250.183C250.245 94.6385 250.308 94.4789 250.373 94.301L253.164 86.6331C253.821 84.8288 254.628 83.4539 255.585 82.5083C256.553 81.5325 257.681 81.0066 258.969 80.9304C258.042 80.0143 257.516 78.8863 257.391 77.5467C257.265 76.207 257.531 74.6351 258.188 72.8309L259.12 70.2701Z" fill="black"/>
<path d="M260.854 63.2582C260.854 60.5782 261.714 59.2382 263.434 59.2382C264.554 59.2382 265.534 59.3382 266.374 59.5382C267.254 59.7382 267.854 60.2382 268.174 61.0382C268.254 61.2382 268.334 61.5382 268.414 61.9382C268.534 62.3382 268.614 62.7582 268.654 63.1982C268.734 63.6382 268.774 64.0582 268.774 64.4582C268.814 64.8182 268.794 65.0582 268.714 65.1782C268.354 65.7382 267.874 66.1782 267.274 66.4982C266.674 66.7782 266.094 66.9182 265.534 66.9182C264.214 66.9182 263.114 66.6982 262.234 66.2582C261.314 65.7782 260.854 64.7782 260.854 63.2582Z" fill="black"/>
<path fill-rule="evenodd" clip-rule="evenodd" d="M237.746 94.7795H232.113C232.131 93.8489 232.367 92.7573 232.823 91.5046L235.352 84.5584C235.888 83.085 236.133 81.8971 236.087 80.9949C236.051 80.0626 235.735 79.2492 235.136 78.5546C234.803 78.1608 234.57 77.7698 234.439 77.3815C234.338 77.0042 234.392 76.5299 234.6 75.9586L234.797 75.4173C235.015 74.8159 235.279 74.4182 235.588 74.2242C235.938 74.011 236.368 73.8608 236.876 73.7734C237.781 73.6261 238.541 73.2217 239.157 72.5602C239.783 71.8687 240.364 70.7863 240.901 69.3128L243.429 62.3666C243.954 60.9233 244.55 59.8463 245.218 59.1356C245.926 58.4059 246.737 58.0029 247.65 57.9266C248.604 57.8312 249.698 58.0078 250.93 58.4566L251.787 58.7685C252.269 58.9436 252.56 59.2198 252.661 59.5971C252.773 59.9444 252.714 60.4337 252.484 61.0652L252.254 61.6967C251.816 62.8995 251.176 63.3477 250.335 63.0412L250.109 62.9591C249.748 62.8278 249.464 62.8605 249.256 63.0573C249.059 63.224 248.846 63.6231 248.616 64.2546L245.825 71.9225C245.168 73.7267 244.361 75.1016 243.404 76.0473C242.447 76.9929 241.319 77.5189 240.021 77.6251C240.958 78.5112 241.484 79.6391 241.598 81.0089C241.724 82.3485 241.458 83.9205 240.801 85.7247L238.011 93.3926C237.792 93.994 237.699 94.4368 237.731 94.7212C237.735 94.7411 237.74 94.7605 237.746 94.7795Z" fill="black"/>
<line x1="220.497" y1="75.9395" x2="239.611" y2="75.9395" stroke="black" stroke-width="5"/>
<path fill-rule="evenodd" clip-rule="evenodd" d="M187.58 13.8528C138.716 30.594 63.2395 90.5401 10.0234 189.008H4.34824C58.0611 88.329 135.218 26.507 185.96 9.12275C198.7 4.75781 210.009 3.11249 218.968 4.54983C228.048 6.00668 234.847 10.6845 237.882 18.8593C240.836 26.817 240.027 37.5916 235.288 50.9492C230.97 63.1204 223.293 77.7145 211.735 94.7795H205.676C218.174 76.7045 226.217 61.5662 230.576 49.2776C235.152 36.379 235.553 26.9523 233.194 20.5996C230.916 14.4641 225.878 10.7224 218.176 9.48669C210.352 8.23147 199.934 9.6205 187.58 13.8528Z" fill="black"/>
<path d="M174.416 81.8895C173.673 82.7747 173.153 83.3054 172.857 83.4815C172.548 83.6472 172.237 83.5993 171.926 83.3377C171.726 83.1703 171.607 82.8688 171.569 82.4331C171.529 81.9745 171.493 81.4347 171.462 80.8135L170.914 69.996L158.361 70.713C157.207 70.7216 156.48 70.6003 156.181 70.3492C155.869 70.0877 155.814 69.7228 156.016 69.2546C156.217 68.7864 156.752 68.0349 157.621 67C158.426 66.04 159.07 65.4118 159.553 65.1154C160.033 64.7961 160.707 64.639 161.573 64.644L173.236 64.646C174.116 64.6615 174.717 64.8053 175.042 65.0773C175.241 65.2447 175.393 65.4682 175.499 65.7478C175.615 66.0149 175.677 66.3965 175.686 66.8925L175.846 78.4371C175.86 79.2561 175.749 79.8955 175.512 80.3553C175.262 80.8045 174.897 81.316 174.416 81.8895Z" fill="black"/>
<path d="M154.706 57.9679C152.88 57.9679 151.647 57.5485 151.006 56.7099C150.315 55.8712 149.97 54.6625 149.97 53.0839C149.97 52.4425 150.118 51.8752 150.414 51.3819C150.66 50.8392 150.981 50.3705 151.376 49.9759C151.77 49.5319 152.19 49.1865 152.634 48.9399C153.028 48.6932 153.398 48.4959 153.744 48.3479C154.829 47.9532 155.964 48.0519 157.148 48.6439C158.282 49.2359 159.121 50.0252 159.664 51.0119C159.812 51.3079 159.91 51.6779 159.96 52.1219C160.009 52.5659 160.034 53.0345 160.034 53.5279C160.034 54.0212 159.984 54.4899 159.886 54.9339C159.787 55.3779 159.614 55.7479 159.368 56.0439C158.776 56.8332 158.11 57.3512 157.37 57.5979C156.58 57.8445 155.692 57.9679 154.706 57.9679ZM175.796 49.0139C175.697 48.6192 175.746 48.2245 175.944 47.8299C176.092 47.4352 176.388 47.1639 176.832 47.0159C178.065 46.6705 179.372 46.7939 180.754 47.3859C181.346 47.6325 181.913 48.0272 182.456 48.5699C182.949 49.1125 183.368 49.7292 183.714 50.4199C184.01 51.0612 184.182 51.7519 184.232 52.4919C184.281 53.1825 184.133 53.8485 183.788 54.4899C183.245 55.4272 182.53 56.0932 181.642 56.4879C180.754 56.8825 179.841 57.0059 178.904 56.8579C177.769 56.6605 176.733 56.1919 175.796 55.4519C174.858 54.6625 174.39 53.4539 174.39 51.8259C174.39 51.0365 174.612 50.3952 175.056 49.9019C175.45 49.4085 175.697 49.1125 175.796 49.0139Z" fill="black"/>
</g>
<defs>
<clipPath id="clip0_2_53">
<rect width="272" height="193" fill="white"/>
</clipPath>
</defs>
</svg>
